<?xml version="1.0" encoding="UTF-8"?>
<svg version="1.1" xmlns="http://www.w3.org/2000/svg" width="285" height="285">
<path d="M0 0 C1.11264725 -0.00101212 1.11264725 -0.00101212 2.24777222 -0.00204468 C13.16258076 0.01375441 23.52520588 0.40587421 34.125 3.25 C34.77597656 3.42160645 35.42695313 3.59321289 36.09765625 3.77001953 C73.79754184 13.93046557 105.2342323 37.73773326 125.06201172 71.36230469 C137.45885412 93.37709234 143.35450108 116.91515166 143.375 142.125 C143.37567474 142.86676483 143.37634949 143.60852966 143.37704468 144.37277222 C143.36124559 155.28758076 142.96912579 165.65020588 140.125 176.25 C139.95339355 176.90097656 139.78178711 177.55195313 139.60498047 178.22265625 C129.44453443 215.92254184 105.63726674 247.3592323 72.01269531 267.18701172 C49.99790766 279.58385412 26.45984834 285.47950108 1.25 285.5 C0.50823517 285.50067474 -0.23352966 285.50134949 -0.99777222 285.50204468 C-11.91258076 285.48624559 -22.27520588 285.09412579 -32.875 282.25 C-33.52597656 282.07839355 -34.17695312 281.90678711 -34.84765625 281.72998047 C-72.54754184 271.56953443 -103.9842323 247.76226674 -123.81201172 214.13769531 C-136.20885412 192.12290766 -142.10450108 168.58484834 -142.125 143.375 C-142.12567474 142.63323517 -142.12634949 141.89147034 -142.12704468 141.12722778 C-142.11124559 130.21241924 -141.71912579 119.84979412 -138.875 109.25 C-138.70339355 108.59902344 -138.53178711 107.94804688 -138.35498047 107.27734375 C-128.19453443 69.57745816 -104.38726674 38.1407677 -70.76269531 18.31298828 C-48.74790766 5.91614588 -25.20984834 0.02049892 0 0 Z " fill="#032149" transform="translate(141.875,-0.24999999999999997)"/>
<path d="M0 0 C1.55521173 0.00031721 3.11044535 0.0116478 4.66552734 0.03173828 C5.89316299 0.03598312 5.89316299 0.03598312 7.14559937 0.04031372 C9.76436877 0.05152546 12.38279848 0.07663149 15.00146484 0.10205078 C16.77489741 0.11207931 18.54833533 0.12120538 20.32177734 0.12939453 C24.6734711 0.151468 29.02491034 0.18600434 33.37646484 0.22705078 C34.64461329 3.82385539 34.0919624 6.15014188 33.04833984 9.77001953 C32.74283203 10.84445313 32.43732422 11.91888672 32.12255859 13.02587891 C31.79384766 14.14414063 31.46513672 15.26240234 31.12646484 16.41455078 C30.81322266 17.51347656 30.49998047 18.61240234 30.17724609 19.74462891 C25.06214084 37.54137479 25.06214084 37.54137479 23.37646484 39.22705078 C20.63752399 39.31563724 17.92393214 39.34228557 15.18505859 39.32470703 C14.36521988 39.32329208 13.54538116 39.32187714 12.70069885 39.32041931 C10.07175102 39.31480367 7.44288711 39.30224857 4.81396484 39.28955078 C3.03597128 39.28453779 1.25797638 39.27997454 -0.52001953 39.27587891 C-4.88789061 39.26482917 -9.25569864 39.24755409 -13.62353516 39.22705078 C-14.44123823 35.89672327 -14.74395476 33.58754762 -13.76806641 30.29345703 C-13.55964111 29.56835938 -13.35121582 28.84326172 -13.13647461 28.09619141 C-12.90532959 27.335 -12.67418457 26.57380859 -12.43603516 25.78955078 C-12.20553467 25.00128906 -11.97503418 24.21302734 -11.73754883 23.40087891 C-11.26598647 21.78855532 -10.79048373 20.17737893 -10.31103516 18.56738281 C-9.67020808 16.38593098 -9.06103158 14.19906112 -8.46728516 12.00439453 C-8.12697266 10.75787109 -7.78666016 9.51134766 -7.43603516 8.22705078 C-7.13310547 7.11330078 -6.83017578 5.99955078 -6.51806641 4.85205078 C-5.12463471 0.76302851 -4.36732153 0.27365645 0 0 Z " fill="#17DDEE" transform="translate(140.62353515625,76.77294921875)"/>
<path d="M0 0 C1.55521173 0.00031721 3.11044535 0.0116478 4.66552734 0.03173828 C5.89316299 0.03598312 5.89316299 0.03598312 7.14559937 0.04031372 C9.76436877 0.05152546 12.38279848 0.07663149 15.00146484 0.10205078 C16.77489741 0.11207931 18.54833533 0.12120538 20.32177734 0.12939453 C24.6734711 0.151468 29.02491034 0.18600434 33.37646484 0.22705078 C34.52115487 3.62859847 34.21404447 5.8200013 33.30224609 9.26220703 C33.04636719 10.23738281 32.79048828 11.21255859 32.52685547 12.21728516 C32.25035156 13.23113281 31.97384766 14.24498047 31.68896484 15.28955078 C31.43179688 16.27632812 31.17462891 17.26310547 30.90966797 18.27978516 C26.03509347 36.56842215 26.03509347 36.56842215 23.37646484 39.22705078 C20.63752399 39.31563724 17.92393214 39.34228557 15.18505859 39.32470703 C14.36521988 39.32329208 13.54538116 39.32187714 12.70069885 39.32041931 C10.07175102 39.31480367 7.44288711 39.30224857 4.81396484 39.28955078 C3.03597128 39.28453779 1.25797638 39.27997454 -0.52001953 39.27587891 C-4.88789061 39.26482917 -9.25569864 39.24755409 -13.62353516 39.22705078 C-14.54668472 35.62352141 -14.65621621 33.32144697 -13.51416016 29.78564453 C-13.25538086 28.95983887 -12.99660156 28.1340332 -12.72998047 27.28320312 C-12.44735352 26.41904785 -12.16472656 25.55489258 -11.87353516 24.66455078 C-11.30872833 22.87491259 -10.74621964 21.08454746 -10.18603516 19.29345703 C-9.91404297 18.42736816 -9.64205078 17.5612793 -9.36181641 16.66894531 C-8.132761 12.60379579 -7.18037843 8.49071331 -6.26416016 4.34423828 C-5.10138083 0.5013944 -3.97120973 0.24883608 0 0 Z " fill="#07F0BD" transform="translate(126.62353515625,32.77294921875)"/>
<path d="M0 0 C0.87454834 0.00523682 1.74909668 0.01047363 2.65014648 0.01586914 C3.59438477 0.0190918 4.53862305 0.02231445 5.51147461 0.02563477 C6.50469727 0.03401367 7.49791992 0.04239258 8.52124023 0.05102539 C9.51833008 0.05553711 10.51541992 0.06004883 11.54272461 0.06469727 C14.01478872 0.07652532 16.48673541 0.0930069 18.95874023 0.11352539 C18.47693592 5.22135967 17.87867018 10.10256953 16.45874023 15.05102539 C16.20092773 15.96754883 15.94311523 16.88407227 15.67749023 17.82836914 C14.95874023 20.11352539 14.95874023 20.11352539 13.95874023 22.11352539 C7.02874023 22.11352539 0.09874023 22.11352539 -7.04125977 22.11352539 C-7.99535705 18.29713625 -8.13586314 17.50920338 -7.08032227 14.03930664 C-6.85602539 13.2897168 -6.63172852 12.54012695 -6.40063477 11.76782227 C-6.15829102 10.9950293 -5.91594727 10.22223633 -5.66625977 9.42602539 C-5.43165039 8.64163086 -5.19704102 7.85723633 -4.95532227 7.04907227 C-2.85912391 0.1590112 -2.85912391 0.1590112 0 0 Z " fill="#10E2D7" transform="translate(112.041259765625,76.886474609375)"/>
<path d="M0 0 C0.87454834 0.00523682 1.74909668 0.01047363 2.65014648 0.01586914 C3.59438477 0.0190918 4.53862305 0.02231445 5.51147461 0.02563477 C6.50469727 0.03401367 7.49791992 0.04239258 8.52124023 0.05102539 C9.51833008 0.05553711 10.51541992 0.06004883 11.54272461 0.06469727 C14.01478872 0.07652532 16.48673541 0.0930069 18.95874023 0.11352539 C20.0311918 3.33088009 19.93828705 3.96835375 18.99780273 7.05493164 C18.77350586 7.80323242 18.54920898 8.5515332 18.31811523 9.32250977 C18.07577148 10.09916992 17.83342773 10.87583008 17.58374023 11.67602539 C17.34913086 12.45655273 17.11452148 13.23708008 16.87280273 14.04125977 C15.13667636 19.75765314 15.13667636 19.75765314 13.95874023 22.11352539 C10.64625837 22.14240686 7.33380856 22.16028338 4.02124023 22.17602539 C3.07571289 22.1844043 2.13018555 22.1927832 1.15600586 22.20141602 C-0.19267578 22.20625 -0.19267578 22.20625 -1.56860352 22.21118164 C-2.81758423 22.21903687 -2.81758423 22.21903687 -4.09179688 22.22705078 C-6.04125977 22.11352539 -6.04125977 22.11352539 -7.04125977 21.11352539 C-7.37886479 16.32240722 -6.46301082 12.38184655 -5.10375977 7.80102539 C-4.56428711 5.95057617 -4.56428711 5.95057617 -4.01391602 4.06274414 C-2.72398093 0.15149517 -2.72398093 0.15149517 0 0 Z " fill="#0EE5D1" transform="translate(163.041259765625,49.886474609375)"/>
<path d="M0 0 C1.98 0 3.96 0 6 0 C8.1171875 2.1875 8.1171875 2.1875 9.875 5 C10.47054687 5.928125 11.06609375 6.85625 11.6796875 7.8125 C12.11539063 8.534375 12.55109375 9.25625 13 10 C13.51949219 9.278125 14.03898437 8.55625 14.57421875 7.8125 C15.27160156 6.884375 15.96898438 5.95625 16.6875 5 C17.37199219 4.071875 18.05648437 3.14375 18.76171875 2.1875 C21 0 21 0 26 0 C26 7.92 26 15.84 26 24 C24.35 24 22.7 24 21 24 C20.67 19.38 20.34 14.76 20 10 C19.443125 10.99 18.88625 11.98 18.3125 13 C16 16 16 16 13.5 16.6875 C11 16 11 16 7 11 C6.67 15.29 6.34 19.58 6 24 C4.02 24 2.04 24 0 24 C0 16.08 0 8.16 0 0 Z " fill="#F0F2F4" transform="translate(49,185)"/>
<path d="M0 0 C12.17981073 -0.49211356 12.17981073 -0.49211356 15.890625 1.734375 C18.23182434 4.24899652 18.66057614 5.13079614 18.5625 8.5 C18.37028373 11.570402 18.07050432 12.88437292 16.4375 15.5625 C13.14128053 17.50642431 10.7621596 17.34834811 7 17 C6.34 16.67 5.68 16.34 5 16 C5 18.64 5 21.28 5 24 C3.35 24 1.7 24 0 24 C0 16.08 0 8.16 0 0 Z " fill="#EBEEF1" transform="translate(160,192)"/>
<path d="M0 0 C0 5.61 0 11.22 0 17 C-13.31154822 17.4930203 -13.31154822 17.4930203 -16.421875 15.265625 C-18.17412699 12.7500157 -18.5415462 11.53287257 -18.5 8.5 C-18.5103125 7.7471875 -18.520625 6.994375 -18.53125 6.21875 C-16.39826308 -2.68960713 -7.08952923 -0.26257516 0 0 Z " fill="#EDEFF2" transform="translate(205,192)"/>
<path d="M0 0 C0 5.61 0 11.22 0 17 C-10.546875 17.48828125 -10.546875 17.48828125 -14 17 C-17.02259112 14.12389957 -17.89716962 12.63983347 -18.5625 8.5 C-18 5 -18 5 -16.3125 2.0625 C-11.0151109 -1.23587435 -6.15499376 -0.31085827 0 0 Z " fill="#F0F2F4" transform="translate(165,145)"/>
<path d="M0 0 C1.093125 0.12375 2.18625 0.2475 3.3125 0.375 C3.9725 0.375 4.6325 0.375 5.3125 0.375 C6.6325 0.375 7.9525 0.375 9.3125 0.375 C9.3125 5.985 9.3125 11.595 9.3125 17.375 C-3.04247408 17.86919896 -3.04247408 17.86919896 -6.04296875 15.5703125 C-8.40190769 12.42132513 -8.75511945 10.29692814 -8.6875 6.375 C-6.18375917 2.07169545 -5.03506504 0.51204051 0 0 Z " fill="#F3F4F6" transform="translate(85.6875,191.625)"/>
<path d="M0 0 C4.95 0 9.9 0 15 0 C15 1.65 15 3.3 15 5 C12.03 5 9.06 5 6 5 C6 6.32 6 7.64 6 9 C8.64 9 11.28 9 14 9 C14 10.65 14 12.3 14 14 C11.36 14 8.72 14 6 14 C6 17.3 6 20.6 6 24 C4.02 24 2.04 24 0 24 C0 16.08 0 8.16 0 0 Z " fill="#E9EBEF" transform="translate(71,138)"/>
<path d="M0 0 C1.65 0 3.3 0 5 0 C5.33 3.96 5.66 7.92 6 12 C7.32 10.68 8.64 9.36 10 8 C12.75 7.75 12.75 7.75 15 8 C13.84826645 10.46800047 12.95216435 12.04783565 11 14 C11.30109351 18.06476236 13.96633261 21.58868696 16 25 C13.1875 25.3125 13.1875 25.3125 10 25 C8.25 22.5625 8.25 22.5625 7 20 C6.34 19.67 5.68 19.34 5 19 C5 20.98 5 22.96 5 25 C3.35 25 1.7 25 0 25 C0 16.75 0 8.5 0 0 Z " fill="#EEF0F3" transform="translate(111,184)"/>
<path d="M0 0 C2.9375 1.5625 2.9375 1.5625 5 4 C5.3125 7.75 5.3125 7.75 5 11 C1.7 11.33 -1.6 11.66 -5 12 C-2.36 12.33 0.28 12.66 3 13 C3.33 13.99 3.66 14.98 4 16 C0.49621805 17.75189097 -3.18634569 17.68265068 -7 17 C-9.76023472 15.2632231 -10.3579434 14.0104371 -12 11 C-12.06874509 7.01278471 -11.58331487 4.8749723 -9.375 1.5625 C-6.02385272 -0.64220216 -3.93750984 -0.55263296 0 0 Z " fill="#DEE2E7" transform="translate(235,192)"/>
<path d="M0 0 C4.4297642 0.79102932 5.89210172 1.98974785 8.5 5.625 C8.8125 8.9375 8.8125 8.9375 8.5 11.625 C5.2 11.955 1.9 12.285 -1.5 12.625 C1.14 12.955 3.78 13.285 6.5 13.625 C6.83 14.615 7.16 15.605 7.5 16.625 C4.05258453 18.34870774 0.26964661 18.12806672 -3.5 17.625 C-6.00160818 15.74879387 -7.11945652 14.38608697 -8.5 11.625 C-9.03507099 7.6119676 -8.83051628 6.08571967 -6.4375 2.75 C-3.5 0.625 -3.5 0.625 0 0 Z " fill="#EEF0F3" transform="translate(136.5,191.375)"/>
<path d="M0 0 C2.9375 1.5625 2.9375 1.5625 5 4 C5.3125 7.75 5.3125 7.75 5 11 C1.7 11.33 -1.6 11.66 -5 12 C-2.36 12.33 0.28 12.66 3 13 C3.33 13.99 3.66 14.98 4 16 C0.49621805 17.75189097 -3.18634569 17.68265068 -7 17 C-9.76023472 15.2632231 -10.3579434 14.0104371 -12 11 C-12.06874509 7.01278471 -11.58331487 4.8749723 -9.375 1.5625 C-6.02385272 -0.64220216 -3.93750984 -0.55263296 0 0 Z " fill="#DEE2E7" transform="translate(213,145)"/>
<path d="M0 0 C4.4297642 0.79102932 5.89210172 1.98974785 8.5 5.625 C8.8125 8.9375 8.8125 8.9375 8.5 11.625 C5.2 11.955 1.9 12.285 -1.5 12.625 C1.14 12.955 3.78 13.285 6.5 13.625 C6.83 14.615 7.16 15.605 7.5 16.625 C4.05258453 18.34870774 0.26964661 18.12806672 -3.5 17.625 C-6.00160818 15.74879387 -7.11945652 14.38608697 -8.5 11.625 C-9.03507099 7.6119676 -8.83051628 6.08571967 -6.4375 2.75 C-3.5 0.625 -3.5 0.625 0 0 Z " fill="#EEF0F3" transform="translate(128.5,144.375)"/>
<path d="M0 0 C2.8125 1.5625 2.8125 1.5625 5 4 C5.8125 7.75 5.8125 7.75 6 11 C0.555 11.495 0.555 11.495 -5 12 C-2.36 12.33 0.28 12.66 3 13 C3 14.32 3 15.64 3 17 C-1.46641443 17.35030701 -4.94914438 17.49325876 -9.0625 15.5625 C-11.52592533 12.30442134 -11.72256378 10.14503369 -11.484375 6.12890625 C-11 4 -11 4 -8.875 1.4375 C-5.49160462 -0.25419769 -3.73175586 -0.62195931 0 0 Z " fill="#EFF1F3" transform="translate(112,145)"/>
<path d="M0 0 C9.91236914 -0.59713067 9.91236914 -0.59713067 14.1875 1.75 C16.94410649 6.69288061 16.39727965 11.46457019 16 17 C14.35 17 12.7 17 11 17 C10.67 13.37 10.34 9.74 10 6 C8.68 6 7.36 6 6 6 C5.67 9.63 5.34 13.26 5 17 C3.35 17 1.7 17 0 17 C0 11.39 0 5.78 0 0 Z " fill="#EAECF0" transform="translate(167,145)"/>
<path d="M0 0 C1.32 0 2.64 0 4 0 C4 0.99 4 1.98 4 3 C5.65 3 7.3 3 9 3 C9 4.65 9 6.3 9 8 C7.35 8 5.7 8 4 8 C4.33 10.31 4.66 12.62 5 15 C6.32 15.33 7.64 15.66 9 16 C8.67 17.65 8.34 19.3 8 21 C4.625 20.6875 4.625 20.6875 1 20 C-1.13586678 16.79619983 -1.23132175 15.98060033 -1.125 12.3125 C-1.10695312 11.50425781 -1.08890625 10.69601563 -1.0703125 9.86328125 C-1.04710937 9.24839844 -1.02390625 8.63351563 -1 8 C-1.66 8 -2.32 8 -3 8 C-3 6.68 -3 5.36 -3 4 C-2.34 3.67 -1.68 3.34 -1 3 C-0.67 2.01 -0.34 1.02 0 0 Z " fill="#E3E6EB" transform="translate(150,189)"/>
<path d="M0 0 C3.375 0.5 3.375 0.5 6.375 2.5 C6.045 3.49 5.715 4.48 5.375 5.5 C4.240625 5.479375 3.10625 5.45875 1.9375 5.4375 C-1.44075674 5.08422523 -1.44075674 5.08422523 -2.625 6.5 C-2.66563832 8.16617115 -2.667721 9.83388095 -2.625 11.5 C-1.8825 11.644375 -1.14 11.78875 -0.375 11.9375 C1.89527739 12.40187492 4.13259479 12.91863569 6.375 13.5 C5.715 14.82 5.055 16.14 4.375 17.5 C-2.87137681 17.98309179 -2.87137681 17.98309179 -6.0625 15.9375 C-8.1915223 12.61622522 -8.69317573 10.45419205 -8.625 6.5 C-6.15082772 2.24751639 -4.94236358 0.68170532 0 0 Z " fill="#F1F2F4" transform="translate(214.625,191.5)"/>
<path d="M0 0 C3.375 0.5 3.375 0.5 6.375 2.5 C6.045 3.49 5.715 4.48 5.375 5.5 C4.240625 5.479375 3.10625 5.45875 1.9375 5.4375 C-1.44075674 5.08422523 -1.44075674 5.08422523 -2.625 6.5 C-2.66563832 8.16617115 -2.667721 9.83388095 -2.625 11.5 C-1.8825 11.644375 -1.14 11.78875 -0.375 11.9375 C1.89527739 12.40187492 4.13259479 12.91863569 6.375 13.5 C5.715 14.82 5.055 16.14 4.375 17.5 C-2.87137681 17.98309179 -2.87137681 17.98309179 -6.0625 15.9375 C-8.1915223 12.61622522 -8.69317573 10.45419205 -8.625 6.5 C-6.15082772 2.24751639 -4.94236358 0.68170532 0 0 Z " fill="#F1F2F4" transform="translate(192.625,144.5)"/>
<path d="M0 0 C1.65 0 3.3 0 5 0 C5 8.25 5 16.5 5 25 C3.35 25 1.7 25 0 25 C0 16.75 0 8.5 0 0 Z " fill="#E7EAEE" transform="translate(180,184)"/>
<path d="M0 0 C1.65 0 3.3 0 5 0 C5 8.25 5 16.5 5 25 C3.35 25 1.7 25 0 25 C0 16.75 0 8.5 0 0 Z " fill="#EDEFF2" transform="translate(140,137)"/>
<path d="M0 0 C2.475 0.495 2.475 0.495 5 1 C5.33 0.67 5.66 0.34 6 0 C7.99958364 -0.04080783 10.00045254 -0.04254356 12 0 C12 1.32 12 2.64 12 4 C11.030625 4.309375 10.06125 4.61875 9.0625 4.9375 C6.15934208 5.69523342 6.15934208 5.69523342 5 7 C4.76712992 8.68183948 4.58735834 10.3712416 4.4375 12.0625 C4.31181641 13.44115234 4.31181641 13.44115234 4.18359375 14.84765625 C4.12300781 15.55792969 4.06242187 16.26820313 4 17 C2.68 17 1.36 17 0 17 C0 11.39 0 5.78 0 0 Z " fill="#F5F6F8" transform="translate(98,192)"/>
<path d="M0 0 C2.475 0.495 2.475 0.495 5 1 C5.33 0.67 5.66 0.34 6 0 C7.99958364 -0.04080783 10.00045254 -0.04254356 12 0 C12 1.32 12 2.64 12 4 C11.030625 4.309375 10.06125 4.61875 9.0625 4.9375 C6.15934208 5.69523342 6.15934208 5.69523342 5 7 C4.76712992 8.68183948 4.58735834 10.3712416 4.4375 12.0625 C4.31181641 13.44115234 4.31181641 13.44115234 4.18359375 14.84765625 C4.12300781 15.55792969 4.06242187 16.26820313 4 17 C2.68 17 1.36 17 0 17 C0 11.39 0 5.78 0 0 Z " fill="#F5F6F8" transform="translate(88,145)"/>
<path d="M0 0 C2.5 0.25 2.5 0.25 4.5 2.25 C4.75 4.75 4.75 4.75 4.5 7.25 C2.5 9.25 2.5 9.25 0 9.5 C-2.5 9.25 -2.5 9.25 -4.5 7.25 C-4.75 4.75 -4.75 4.75 -4.5 2.25 C-2.5 0.25 -2.5 0.25 0 0 Z " fill="#1B365A" transform="translate(195.5,195.75)"/>
<path d="M0 0 C3.125 0.375 3.125 0.375 6 1 C6.625 3.875 6.625 3.875 7 7 C5 9 5 9 2.5 9.25 C0 9 0 9 -2 7 C-2.25 4.5 -2.25 4.5 -2 2 C-1.34 1.34 -0.68 0.68 0 0 Z " fill="#183458" transform="translate(167,196)"/>
<path d="M0 0 C2.375 0.75 2.375 0.75 3.375 1.75 C3.5625 4.1875 3.5625 4.1875 3.375 6.75 C2.715 7.41 2.055 8.07 1.375 8.75 C-1.75 8.375 -1.75 8.375 -4.625 7.75 C-5.3125 5.4375 -5.3125 5.4375 -5.625 2.75 C-3.9659358 -0.015107 -3.22812218 -0.30744021 0 0 Z " fill="#112D53" transform="translate(156.625,149.25)"/>
<path d="M0 0 C3.125 0.375 3.125 0.375 6 1 C6.04241723 3.33294775 6.04092937 5.66702567 6 8 C5 9 5 9 2.5625 9.1875 C0 9 0 9 -2 7 C-2.25 4.5 -2.25 4.5 -2 2 C-1.34 1.34 -0.68 0.68 0 0 Z " fill="#0F2B51" transform="translate(84,196)"/>
<path d="M0 0 C0 3.96 0 7.92 0 12 C-0.33 11.01 -0.66 10.02 -1 9 C-2.65 8.67 -4.3 8.34 -6 8 C-6 5.69 -6 3.38 -6 1 C-1.125 0 -1.125 0 0 0 Z " fill="#0B284F" transform="translate(160,196)"/>
<path d="M0 0 C1.65 0.33 3.3 0.66 5 1 C5 1.66 5 2.32 5 3 C2.69 3 0.38 3 -2 3 C-1.34 2.01 -0.68 1.02 0 0 Z " fill="#1D385C" transform="translate(135,196)"/>
<path d="M0 0 C1.65 0.33 3.3 0.66 5 1 C5 1.66 5 2.32 5 3 C2.69 3 0.38 3 -2 3 C-1.34 2.01 -0.68 1.02 0 0 Z " fill="#1D385C" transform="translate(127,149)"/>
<path d="M0 0 C2.4375 0.375 2.4375 0.375 5 1 C5.33 1.66 5.66 2.32 6 3 C3.69 3 1.38 3 -1 3 C-0.67 2.01 -0.34 1.02 0 0 Z " fill="#1E395C" transform="translate(107,149)"/>
</svg>
